M48
;Layer_Color=6321
;FILE_FORMAT=2:5
INCH,LZ
;TYPE=PLATED
T1F00S00C0.01181
T4F00S00C0.03346
T5F00S00C0.03937
T6F00S00C0.04134
%
T01
X01Y0119685
X0119685Y01
X0127559Y013937
X015315Y0136417
X0159252Y0114272
X0161024Y0106238
X0169882Y0117717
X0166929Y0120669
X0182677Y0117323
X0188583Y0114764
X0194882Y0129528
X0208268
X0206299Y013937
X0198425Y0141634
X023189Y0136417
X0228346Y012874
X0226969Y0108858
X0235433Y0105512
X0240748Y0105905
X0237992Y0114272
X0248622Y0117717
X0245669Y0120669
X0261417Y0117717
X0267323Y0114764
X0273228Y0129528
X0287008
X0285039Y013937
X0277165Y0141634
X031063Y0136417
X0307087Y012874
X0305709Y0108858
X0308661Y0096063
X029685Y0083268
X029685Y0117717
X021811
X0234842Y0092126
X0198425Y0083268
X0314567Y0105905
X0319488
X0316732Y0114272
X0327362Y0117717
X032441Y0120669
X0340551Y0117717
X0346063Y0114764
X0351575Y0129528
X0365748
X0363779Y013937
X0355906Y0141634
X038937Y0136417
X0386221Y0129134
X0384449Y0108858
X039252Y0105905
X0398228
X0395472Y0114272
X0406102Y0117717
X040315Y0120669
X0418898Y0117323
X0424803Y0114764
X0431102Y0132283
X0434646Y0141634
X044252Y013937
X0444488Y013248
X0464173Y013189
X046811Y0136417
X0463189Y0108858
X0461221Y0101969
X0454331Y0117717
X0454331Y0083268
X037559
X0387402Y0098032
X0375591Y0117717
X0474213Y0114272
X0471654Y0105905
X0476968
X0484842Y0117717
X048189Y0120669
X0498032Y0117323
X0503543Y0114764
X051063Y0134252
X0513386Y0141634
X052126Y013937
X0523228Y013248
X0543307Y0133071
X054685Y0136417
X0552953Y0114272
X0555709Y0105905
X055
X0541929Y0108858
X0537992Y0103937
X0533071Y0117717
X056063Y0120669
X0563583Y0117717
X0575984Y0117323
X0582283Y0114764
X0590158Y0135039
X0592126Y0141634
X06Y013937
X0601968Y0133465
X0621654Y0134252
X0624016Y0114173
X0620669Y0108858
X0614764Y010689
X0611811Y0117717
X0611811Y0083268
X0533071
X0627559Y010748
X0634156Y0107515
X0631693Y0114272
X0642323Y0117717
X063937Y0120669
X0655118Y0117717
X0661024Y0114764
X0665354Y0135827
X0670866Y0141634
X067874Y013937
X0704331Y0136417
X070315Y0114173
X0710433Y0114272
X0721063Y0117717
X071811Y0120669
X0740748Y0113779
X0749606Y0141634
X075748Y013937
X0772244Y0148228
X0774803Y0152165
X0769291Y0083268
X0690551
Y0109843
X0690551Y0117717
X0686122Y0117913
X0699409Y0108858
X0625591Y0136417
X0782677Y013937
X0806693Y0145276
X0802756Y0113779
X0814567Y0114764
X0813583Y0109843
X0818504
X0822441Y010689
X0827362Y0104921
X0831299Y0102953
X0834252Y0100984
X0838189Y0098032
X0846063Y0097047
X0848032Y0083268
X0849016Y0115748
X0834646Y0126772
X0841142Y0133715
X0842126Y0143307
X0847638Y0144095
X0857087Y0143307
X0861811Y0135039
X0868504
X0881102Y013937
X0887008
X090315Y0138976
X089685Y0114961
X0900197Y0100984
X0906102Y01
X0910039Y0095079
X0907677Y0085827
X0918898Y0088189
X0893307Y0099016
X0883071Y0096063
X0880512Y0101969
X0884252Y0120079
X0938583Y0119685
Y0159055
Y0186614
X0949213Y0233858
Y027874
X0942028Y0308858
X0936614Y031063
X0912992Y0302362
X0904724Y0294488
X089626Y029685
X0892126
X0890354Y0306693
X0894094Y0307087
X0870669Y0307677
X0849213Y0308268
X0850984Y029685
Y0280118
X0838189Y0286024
X0831299Y0300787
X0826378Y0307677
X0821457Y029685
X0808661Y0303937
X0809055Y0284646
X0793898Y029685
X0789961Y0302756
X0782677Y029685
X0788976Y0277165
X0791929Y0255512
X0793898Y0251575
X0802756
X0809842Y0255906
X0825394Y0254528
X085Y0242717
X0847638Y0228346
X084252Y0223622
X0858858Y0220079
X0857874Y0232874
X0885433Y0225984
X090315Y0236811
X0925197Y0234646
X092126Y0269291
X0916142Y0280315
X0901575Y0274016
X0868701Y0261417
X0858661Y0198425
Y0178347
X0847638
X084252
X0844882Y0159055
X0858661Y0158268
X0881102Y0157874
X0887008Y0158661
X0899213
X0901575Y0173622
X0899213Y0186614
X0887008Y0179921
X0918898Y0182677
X0915945Y0193504
X0899213Y0211221
X0809055Y0224016
X0789961
X0793898Y021811
X0782677
X0787008Y0196457
X0791929Y0176772
X0793898Y0172835
X0802756
X0811024Y0167717
X0812598Y0176772
X0805118Y0156693
X0797342Y0164173
Y0242913
X0774803Y0230906
X0772244Y0226969
Y0209252
X075748Y021811
X0749606Y0215846
Y0220374
X0712205Y0249606
X067874Y021811
X0670866Y0215846
Y0220374
X0633465Y0249606
Y0170866
X0712205
X067874Y029685
X0670866Y0294587
Y0299114
X0749606
Y0294587
X075748Y029685
X0772244Y0287992
Y0305709
X0774803Y0309646
X06Y029685
X0592126Y0294587
Y0299114
X052126Y029685
X0513386Y0294587
Y0299114
Y0220374
Y0215846
X052126Y021811
X0554725Y0249606
X0592126Y0220374
Y0215846
X06Y021811
X0554725Y0170866
X0475984
Y0249606
X044252Y021811
X0434646Y0215846
Y0220374
X0397244Y0249606
X0363779Y021811
X0355906Y0215846
Y0220374
X0318504Y0249606
Y0170866
X0397244
X0363779Y029685
X0355906Y0294587
Y0299114
X0434646
Y0294587
X044252Y029685
X0285039
X0277165Y0294587
Y0299114
X0206299Y029685
X0198425Y0294587
Y0299114
Y0220374
Y0215846
X0206299Y021811
X0239764Y0249606
X0277165Y0220374
Y0215846
X0285039Y021811
X0239764Y0170866
X0161024
Y0249606
X0127559Y021811
X01
Y029685
X0127559
Y037559
X01
Y0454331
X0127559
X0198425Y0452067
Y0456595
X0206299Y0454331
X0277165Y0452067
Y0456595
X0285039Y0454331
Y037559
X0277165Y0373327
Y0377854
X0239764Y0407087
X0206299Y037559
X0198425Y0373327
Y0377854
X0161024Y0407087
Y0328346
X0239764
X0318504
Y0407087
X0355906Y0377854
Y0373327
X0363779Y037559
X0397244Y0407087
X0434646Y0377854
Y0373327
X044252Y037559
Y0454331
X0434646Y0452067
Y0456595
X0363779Y0454331
X0355906Y0452067
Y0456595
X0397244Y0328346
X0475984
Y0407087
X0513386Y0377854
Y0373327
X052126Y037559
X0554725Y0407087
X0592126Y0377854
Y0373327
X06Y037559
Y0454331
X0592126Y0452067
Y0456595
X052126Y0454331
X0513386Y0452067
Y0456595
X0554725Y0328346
X0633465
Y0407087
X0670866Y0377854
Y0373327
X067874Y037559
X0712205Y0407087
X0749606Y0377854
Y0373327
X075748Y037559
X0772244Y0384449
X0774803Y0388386
X0772244Y0366732
Y0445472
Y0463189
X0774803Y0467126
X075748Y0454331
X0749606Y0452067
Y0456595
X067874Y0454331
X0670866Y0452067
Y0456595
X0712205Y0328346
X0793898Y0330315
X0791929Y0334252
X0802756Y0330315
X0807677Y0334252
X0808661Y032126
X0797342Y0321654
X0835039Y0318504
X0846063Y0315551
X0852953Y0321457
X0855512Y0327165
X0846063Y0329331
Y0335236
Y033937
Y0346063
Y0355118
X0852953Y0357874
X0851181Y036811
X0847047Y0367717
X085Y037559
X0839173Y0380512
X0824409Y038248
X081752Y0381496
X0821457Y037559
X0822441Y0390354
X0827362Y0394291
X0830315Y038937
X0816535Y0400197
X0819488Y0406102
X0818504Y0411024
X0807676Y0413976
X0806693Y0416929
X0805709Y0419882
X0809449Y0426772
X0802559Y0408858
X0793701
X0791929Y0412992
X0797342Y0400394
X0806693Y039626
X0805709Y0392323
X0805512Y0385433
X0805118Y037559
X0793898
X0789961Y0381496
X0782677Y037559
X0788976Y0355906
X0822441Y0349016
X0821457Y0342126
Y0339173
X0826378Y0340158
X0831299Y0332283
X0861811Y0335236
X0856299Y0346063
X0874606Y0344094
X0881102Y0353937
X0897244
X089685Y034685
X0912008Y0347047
X0915945
X0925197Y0346457
Y0356693
X0919291Y0360236
X0906693
X090748Y0353937
X0900394Y0366929
X0914961Y0372638
X0918898Y037874
X0925984
X091378Y0382677
X0915354Y0385433
X0915374Y0390571
X0914173Y0394094
X0912008Y0401181
X0912205Y0405512
X0907087
X0916929Y0408071
Y0414961
X0910039
X0902165
X089626Y0418898
X088937Y0417913
X0880512Y0412008
X0883465Y0398228
X0888386Y0391339
X0890551Y0385827
X088937Y0380512
X0902756Y0385433
X090748
Y0390551
X0917106Y0400571
X087248Y0401181
X0870216Y0395276
X0868701Y0390354
X0866732Y0385433
X0857874Y0398228
X0849016Y0419689
X0838189Y0414961
X083622Y0443504
X082874Y045315
X0823622
X0841732Y0455512
X0841634Y0462008
X0838189Y0467126
X0845079
X0859842Y0463189
X085748Y0459449
X0867717Y0464173
X0872638Y0463189
X0876575Y046122
X0890354Y0459252
X0897244Y0467126
X0902161Y0467234
X089685Y0444882
X0899213Y0438583
X089685Y043189
X0876575Y0434646
X0885039Y0443701
X0868701Y0448425
X0861811Y0438583
X0855906Y0430709
X0871653Y0419882
X0887402Y0340158
X0892323Y0323425
X0881102Y0315551
X0878543Y0312598
X0871653Y0322441
X0920866Y0325394
X0922047Y0333465
X0912205Y0337402
X0933615Y0342672
X093359Y0350197
X0927756Y0319488
X0784055Y0433661
X0782677Y0454331
X0789961Y0458268
X0793898Y0454331
X0949606Y0437402
X0940158Y0366535
X0942515Y0342572
X0940551Y052126
X0919882Y0515354
X0912008Y0520276
X0891339Y0513386
X0894291Y0502559
X0902165
X0886417
X0878543
X0870669
X0862795
X0854921
X0847047
X0839173
X0828347Y0502362
X0831299Y0486811
X0828347Y0483858
X082874Y0477559
X0835827Y0481496
X0839173Y0486811
X0847047
X0854923Y0487796
X0862795Y0486811
X0870669
X0878543
X0886417
X0894291
X0902165
X0880315Y0470079
X0833268Y0468834
X0799606Y0469685
X0797342Y0479134
X0793898Y0487795
X0791929Y0491732
X0802756Y0487795
X0805118Y0510236
X0784055Y0513386
X0782677Y0533071
X0793898
X0789961Y0538976
X0797342Y0557874
X0793898Y0566535
X0791929Y0570472
X0802756Y0566535
X0806693Y0554724
X0835236Y0550787
X0859842Y0566929
X0852953Y0576194
X0865748Y0578346
X0890158Y0570472
X0884449Y0548819
X0899606
X0842126Y0516339
X080748Y0588189
X0806693Y0611811
X0793898
X0789961Y0617717
X0782677Y0611811
X0784055Y0592126
X0815354Y0605905
X0772244Y0602953
Y0620669
X0774803Y0624606
X075748Y0611811
X0749606Y0609547
Y0614075
X067874Y0611811
X0670866Y0609547
Y0614075
Y0535335
Y0530807
X067874Y0533071
X0712205Y0564567
X0749606Y0535335
Y0530807
X075748Y0533071
X0772244Y0541929
X0774803Y0545866
X0772244Y0524213
X0712205Y0485827
X0633465
Y0564567
X06Y0533071
X0592126Y0530807
Y0535335
X0554725Y0564567
X052126Y0533071
X0513386Y0530807
Y0535335
X0475984Y0564567
Y0485827
X0554725
X052126Y0611811
X0513386Y0609547
Y0614075
X0592126
Y0609547
X06Y0611811
X044252
X0434646Y0609547
Y0614075
X0363779Y0611811
X0355906Y0609547
Y0614075
Y0535335
Y0530807
X0363779Y0533071
X0397244Y0564567
X0434646Y0535335
Y0530807
X044252Y0533071
X0397244Y0485827
X0318504
Y0564567
X0285039Y0533071
X0277165Y0530807
Y0535335
X0239764Y0564567
X0206299Y0533071
X0198425Y0530807
Y0535335
X0161024Y0564567
Y0485827
X0239764
X0206299Y0611811
X0198425Y0609547
Y0614075
X0277165
Y0609547
X0285039Y0611811
X0127559
X01
Y0533071
X0127559
Y0690551
X01
Y0769291
X0127559
X0198425Y0767028
X0206299Y0769291
X0277165Y0767028
X0285039Y0769291
Y0690551
X0277165Y0688287
Y0692815
X0239764Y0722047
X0206299Y0690551
X0198425Y0688287
Y0692815
X0161024Y0722047
Y0643307
X0239764
X0318504
Y0722047
X0355906Y0692815
Y0688287
X0363779Y0690551
X0397244Y0722047
X0434646Y0692815
Y0688287
X044252Y0690551
Y0769291
X0434646Y0767028
X0363779Y0769291
X0355906Y0767028
X0397244Y0643307
X0475984
Y0722047
X0513386Y0692815
Y0688287
X052126Y0690551
X0554725Y0722047
X0592126Y0692815
Y0688287
X06Y0690551
Y0769291
X0592126Y0767028
X052126Y0769291
X0513386Y0767028
X0554725Y0643307
X0633465
Y0722047
X0670866Y0692815
Y0688287
X067874Y0690551
X0712205Y0722047
X0749606Y0692815
Y0688287
X075748Y0690551
X0772244Y0699409
X0775197Y0703346
X0772244Y0681693
Y0760433
X075748Y0769291
X0749606Y0767028
X067874Y0769291
X0670866Y0767028
X0712205Y0643307
X0793898Y0645276
X0791929Y0649213
X0802756Y0645276
X0809449Y0649213
X0815748
X0816535Y0654724
X080748Y0670866
X0805906Y0690551
X0817323
X0812992Y0709449
X0797342Y0715354
X0793898Y0724016
X0791929Y0727953
X0802756Y0724016
X0820472Y072874
X0784055Y0754528
X0782677Y0769291
X0793898
X0789961Y0696457
X0793898Y0690551
X0782677
X0784055Y0670866
X0797342Y0636614
X0808661Y0629528
X0855512Y065
X0934646Y0670866
Y0729921
X0887402Y074685
X0934646Y0788976
X0916929Y0808661
X0848032
X0769291
X0690551
X0611811
X0533071
X0454331
X037559
X029685
X021811
X013937
X01
T04
X094252Y0545768
Y0557579
Y056939
T05
X0819488Y0150197
X0845079
X0858858
X0858858Y0128543
Y0110827
X0884449
Y0128543
X0884449Y0150197
X0898228
X0923819
Y0167913
X0898228
X0884449
Y0189567
Y0207283
X0858858
Y0189567
Y0167913
X0845079
X0819488
T06
X0857894Y0599291
X0916909
X0929528Y0627559
X0879528
M30
