G04 Layer_Color=7318015*
%FSLAX25Y25*%
%MOIN*%
G70*
G01*
G75*
%ADD12R,0.01181X0.05512*%
%ADD13R,0.07677X0.01969*%
%ADD14R,0.10433X0.04331*%
%ADD15R,0.04921X0.02756*%
%ADD16R,0.01181X0.04724*%
%ADD17R,0.04724X0.01181*%
%ADD18R,0.07480X0.07480*%
%ADD19R,0.05512X0.06299*%
%ADD20R,0.05315X0.01575*%
%ADD21R,0.09449X0.06299*%
%ADD22R,0.06299X0.03150*%
D12*
X862795Y456398D02*
D03*
X864764D02*
D03*
X866732D02*
D03*
X868701D02*
D03*
X870669D02*
D03*
X872638D02*
D03*
X874606D02*
D03*
X876575D02*
D03*
X878543D02*
D03*
X880512D02*
D03*
D13*
X857185Y455020D02*
D03*
X886122D02*
D03*
D14*
X855807Y451870D02*
D03*
X887500D02*
D03*
D15*
X858563Y448327D02*
D03*
X884744D02*
D03*
D16*
X848032Y362795D02*
D03*
X850000D02*
D03*
X851968D02*
D03*
X853937D02*
D03*
X855906D02*
D03*
X857874D02*
D03*
X859842D02*
D03*
X861811D02*
D03*
X863780D02*
D03*
X865748D02*
D03*
X867717D02*
D03*
X869685D02*
D03*
X871653D02*
D03*
X873622D02*
D03*
X875591D02*
D03*
X877559D02*
D03*
X879528D02*
D03*
X881496D02*
D03*
X883465D02*
D03*
X885433D02*
D03*
X887402D02*
D03*
X889370D02*
D03*
X891339D02*
D03*
X893307D02*
D03*
X895276D02*
D03*
Y301772D02*
D03*
X893307D02*
D03*
X891339D02*
D03*
X889370D02*
D03*
X887402D02*
D03*
X885433D02*
D03*
X883465D02*
D03*
X881496D02*
D03*
X879528D02*
D03*
X877559D02*
D03*
X875591D02*
D03*
X873622D02*
D03*
X871653D02*
D03*
X869685D02*
D03*
X867717D02*
D03*
X865748D02*
D03*
X863780D02*
D03*
X861811D02*
D03*
X859842D02*
D03*
X857874D02*
D03*
X855906D02*
D03*
X853937D02*
D03*
X851968D02*
D03*
X850000D02*
D03*
X848032D02*
D03*
X910039Y475295D02*
D03*
X908071D02*
D03*
X906102D02*
D03*
X904134D02*
D03*
X902165D02*
D03*
X900197D02*
D03*
X898228D02*
D03*
X896260D02*
D03*
X894291D02*
D03*
X892323D02*
D03*
X833268D02*
D03*
X835236D02*
D03*
X837205D02*
D03*
X839173D02*
D03*
X841142D02*
D03*
X843110D02*
D03*
X845079D02*
D03*
X847047D02*
D03*
X849016D02*
D03*
X850984D02*
D03*
X852953D02*
D03*
X854921D02*
D03*
X856890D02*
D03*
X858858D02*
D03*
X860827D02*
D03*
X862795D02*
D03*
X864764D02*
D03*
X866732D02*
D03*
X868701D02*
D03*
X870669D02*
D03*
X872638D02*
D03*
X874606D02*
D03*
X876575D02*
D03*
X878543D02*
D03*
X880512D02*
D03*
X882480D02*
D03*
X884449D02*
D03*
X886417D02*
D03*
X888386D02*
D03*
X890354D02*
D03*
D17*
X902165Y355906D02*
D03*
Y353937D02*
D03*
Y351969D02*
D03*
Y350000D02*
D03*
Y348031D02*
D03*
Y346063D02*
D03*
Y344094D02*
D03*
Y342126D02*
D03*
Y340158D02*
D03*
Y338189D02*
D03*
Y336221D02*
D03*
Y334252D02*
D03*
Y332283D02*
D03*
Y330315D02*
D03*
Y328346D02*
D03*
Y326378D02*
D03*
Y324409D02*
D03*
Y322441D02*
D03*
Y320472D02*
D03*
Y318504D02*
D03*
Y316535D02*
D03*
Y314567D02*
D03*
Y312598D02*
D03*
Y310630D02*
D03*
Y308661D02*
D03*
X841142D02*
D03*
Y310630D02*
D03*
Y312598D02*
D03*
Y314567D02*
D03*
Y316535D02*
D03*
Y318504D02*
D03*
Y320472D02*
D03*
Y322441D02*
D03*
Y324409D02*
D03*
Y326378D02*
D03*
Y328346D02*
D03*
Y330315D02*
D03*
Y332283D02*
D03*
Y334252D02*
D03*
Y336221D02*
D03*
Y338189D02*
D03*
Y340158D02*
D03*
Y342126D02*
D03*
Y344094D02*
D03*
Y346063D02*
D03*
Y348031D02*
D03*
Y350000D02*
D03*
Y351969D02*
D03*
Y353937D02*
D03*
Y355906D02*
D03*
D18*
X948622Y352461D02*
D03*
Y343012D02*
D03*
D19*
X938976Y360335D02*
D03*
Y335138D02*
D03*
D20*
X938091Y342618D02*
D03*
Y345177D02*
D03*
Y347736D02*
D03*
Y350295D02*
D03*
Y352854D02*
D03*
D21*
X918307Y463091D02*
D03*
X825000D02*
D03*
D22*
X826575Y467815D02*
D03*
X916732D02*
D03*
M02*
